<svg width="512" height="512" version="1.1" xmlns="http://www.w3.org/2000/svg" desc="Created with imagetracer.js version 1.2.6" ><path fill="rgb(205,205,205)" stroke="rgb(205,205,205)" stroke-width="1" opacity="1" d="M 180.5 80 L 183.5 80 L 190 85.5 L 189.5 88 L 187.5 84 L 180.5 81 L 180.5 80 Z " /><path fill="rgb(205,205,205)" stroke="rgb(205,205,205)" stroke-width="1" opacity="1" d="M 177.5 81 L 176.5 83 L 174.5 84 L 175.5 82 L 177.5 81 Z " /><path fill="rgb(205,205,205)" stroke="rgb(205,205,205)" stroke-width="1" opacity="1" d="M 172.5 84 L 172 85.5 L 169.5 89 L 171 86.5 L 172.5 84 Z " /><path fill="rgb(205,205,205)" stroke="rgb(205,205,205)" stroke-width="1" opacity="1" d="M 168.5 90 L 169 92.5 L 168 92.5 L 168.5 90 Z " /><path fill="rgb(205,205,205)" stroke="rgb(205,205,205)" stroke-width="1" opacity="1" d="M 191.5 92 Q 193.8 91.3 193 93.5 L 193 95.5 L 192.5 97 L 192 95.5 L 193 94.5 L 191.5 92 Z " /><path fill="rgb(205,205,205)" stroke="rgb(205,205,205)" stroke-width="1" opacity="1" d="M 166.5 98 L 165.5 100 L 166.5 98 Z " /><path fill="rgb(205,205,205)" stroke="rgb(205,205,205)" stroke-width="1" opacity="1" d="M 193.5 98 L 194 100.5 L 192.5 103 L 192 101.5 L 193.5 98 Z " /><path fill="rgb(205,205,205)" stroke="rgb(205,205,205)" stroke-width="1" opacity="1" d="M 165.5 101 L 165 102.5 L 164.5 104 L 164 102.5 L 165.5 101 Z " /><path fill="rgb(205,205,205)" stroke="rgb(205,205,205)" stroke-width="1" opacity="1" d="M 192.5 104 L 196 105.5 L 194.5 106 L 192.5 104 Z " /><path fill="rgb(205,205,205)" stroke="rgb(205,205,205)" stroke-width="1" opacity="1" d="M 164.5 105 Q 167.1 107.4 166 113.5 L 165 113.5 L 164.5 105 Z " /><path fill="rgb(205,205,205)" stroke="rgb(205,205,205)" stroke-width="1" opacity="1" d="M 195.5 107 L 196 109.5 L 195 109.5 L 195.5 107 Z " /><path fill="rgb(205,205,205)" stroke="rgb(205,205,205)" stroke-width="1" opacity="1" d="M 196.5 111 L 197.5 113 Q 194.7 113.7 196.5 111 Z " /><path fill="rgb(205,205,205)" stroke="rgb(205,205,205)" stroke-width="1" opacity="1" d="M 165.5 115 L 166 117.5 L 165 117.5 L 165.5 115 Z " /><path fill="rgb(205,205,205)" stroke="rgb(205,205,205)" stroke-width="1" opacity="1" d="M 198.5 116 L 199 118.5 L 198 118.5 L 198.5 116 Z " /><path fill="rgb(205,205,205)" stroke="rgb(205,205,205)" stroke-width="1" opacity="1" d="M 165.5 122 L 167 125.5 L 165 124.5 L 165.5 122 Z " /><path fill="rgb(205,205,205)" stroke="rgb(205,205,205)" stroke-width="1" opacity="1" d="M 200.5 122 L 202 125.5 L 202 127.5 L 203 131.5 L 202 131.5 L 200 125.5 L 200 123.5 L 200.5 122 Z " /><path fill="rgb(205,205,205)" stroke="rgb(205,205,205)" stroke-width="1" opacity="1" d="M 285.5 125 L 289.5 127 L 291 126.5 L 288.5 128 L 285.5 126 L 283.5 127 L 283.5 126 L 285.5 125 Z " /><path fill="rgb(205,205,205)" stroke="rgb(205,205,205)" stroke-width="1" opacity="1" d="M 281.5 126 L 280.5 128 Q 273.5 126.5 274 129.5 L 272 130.5 L 273 127 L 280.5 127 L 281.5 126 Z " /><path fill="rgb(205,205,205)" stroke="rgb(205,205,205)" stroke-width="1" opacity="1" d="M 167.5 127 L 168.5 129 L 167.5 127 Z " /><path fill="rgb(205,205,205)" stroke="rgb(205,205,205)" stroke-width="1" opacity="1" d="M 292.5 127 L 297.5 129 Q 298.8 126.8 300 129.5 L 297.5 130 Q 292.5 129.8 292.5 127 Z " /><path fill="rgb(205,205,205)" stroke="rgb(205,205,205)" stroke-width="1" opacity="1" d="M 169.5 130 L 170 132.5 L 167 134.5 L 169.5 130 Z " /><path fill="rgb(205,205,205)" stroke="rgb(205,205,205)" stroke-width="1" opacity="1" d="M 301.5 130 L 305 131.5 L 303.5 132 L 301.5 130 Z " /><path fill="rgb(205,205,205)" stroke="rgb(205,205,205)" stroke-width="1" opacity="1" d="M 310.5 130 Q 312.3 133.2 317.5 133 L 319.5 132 L 319.5 133 L 315.5 134 Q 310.9 133.3 310.5 130 Z " /><path fill="rgb(205,205,205)" stroke="rgb(205,205,205)" stroke-width="1" opacity="1" d="M 270.5 132 L 270 133.5 Q 270.8 135.8 268.5 135 L 266.5 136 L 266.5 135 L 270.5 132 Z " /><path fill="rgb(205,205,205)" stroke="rgb(205,205,205)" stroke-width="1" opacity="1" d="M 324.5 132 Q 327.1 135.4 334.5 134 L 336.5 133 L 339.5 135 L 342 133.5 L 338.5 136 L 335.5 134 Q 333.8 136.7 327.5 135 L 324.5 133 L 323 133.5 L 324.5 132 Z " /><path fill="rgb(205,205,205)" stroke="rgb(205,205,205)" stroke-width="1" opacity="1" d="M 344.5 134 L 349.5 136 L 353.5 136 L 356.5 135 L 356.5 136 L 349.5 137 L 344.5 135 L 344.5 134 Z " /><path fill="rgb(205,205,205)" stroke="rgb(205,205,205)" stroke-width="1" opacity="1" d="M 204.5 135 Q 207.3 134.4 206 140.5 L 205 140.5 L 204.5 135 Z " /><path fill="rgb(205,205,205)" stroke="rgb(205,205,205)" stroke-width="1" opacity="1" d="M 368.5 135 L 369.5 137 L 368.5 135 Z " /><path fill="rgb(205,205,205)" stroke="rgb(205,205,205)" stroke-width="1" opacity="1" d="M 167.5 136 L 170 139.5 L 169 139.5 L 167.5 136 Z " /><path fill="rgb(205,205,205)" stroke="rgb(205,205,205)" stroke-width="1" opacity="1" d="M 359.5 136 L 365 137.5 L 361.5 138 L 359.5 137 L 358 137.5 L 359.5 136 Z " /><path fill="rgb(205,205,205)" stroke="rgb(205,205,205)" stroke-width="1" opacity="1" d="M 374.5 137 L 377 137 L 377.5 139 L 381.5 139 L 381.5 140 Q 374.9 140.9 374.5 137 Z " /><path fill="rgb(205,205,205)" stroke="rgb(205,205,205)" stroke-width="1" opacity="1" d="M 266.5 138 L 266 139.5 L 264.5 145 L 264 141.5 L 266.5 138 Z " /><path fill="rgb(205,205,205)" stroke="rgb(205,205,205)" stroke-width="1" opacity="1" d="M 384.5 138 L 387 138.5 L 384.5 139 L 384.5 138 Z " /><path fill="rgb(205,205,205)" stroke="rgb(205,205,205)" stroke-width="1" opacity="1" d="M 387.5 140 L 390 143.5 L 388 142.5 L 387.5 140 Z " /><path fill="rgb(205,205,205)" stroke="rgb(205,205,205)" stroke-width="1" opacity="1" d="M 170.5 141 L 171 142.5 L 169.5 145 L 169 143.5 L 170.5 141 Z " /><path fill="rgb(205,205,205)" stroke="rgb(205,205,205)" stroke-width="1" opacity="1" d="M 155.5 143 L 161 145.5 L 158.5 146 L 155.5 144 Q 154.7 146.8 150.5 146 L 150.5 145 Q 154.8 145.8 155.5 143 Z " /><path fill="rgb(205,205,205)" stroke="rgb(205,205,205)" stroke-width="1" opacity="1" d="M 205.5 143 L 205 144.5 L 205.5 147 L 213.5 147 L 215.5 150 L 213.5 148 L 205.5 148 L 204 146.5 L 205.5 143 Z " /><path fill="rgb(205,205,205)" stroke="rgb(205,205,205)" stroke-width="1" opacity="1" d="M 163.5 144 L 164 146 L 162 145.5 L 163.5 144 Z " /><path fill="rgb(205,205,205)" stroke="rgb(205,205,205)" stroke-width="1" opacity="1" d="M 135.5 145 L 140 145.5 Q 135 144.9 133.5 148 L 135.5 145 Z " /><path fill="rgb(205,205,205)" stroke="rgb(205,205,205)" stroke-width="1" opacity="1" d="M 145.5 145 L 149 145.5 L 145.5 146 L 145.5 145 Z " /><path fill="rgb(205,205,205)" stroke="rgb(205,205,205)" stroke-width="1" opacity="1" d="M 390.5 145 L 394 149.5 L 391 151.5 Q 394.5 150 392 148.5 L 390.5 145 Z " /><path fill="rgb(205,205,205)" stroke="rgb(205,205,205)" stroke-width="1" opacity="1" d="M 264.5 146 L 266.5 149 L 264 148 L 264.5 146 Z " /><path fill="rgb(205,205,205)" stroke="rgb(205,205,205)" stroke-width="1" opacity="1" d="M 129.5 148 L 131 148.5 L 128.5 150 L 129.5 148 Z " /><path fill="rgb(205,205,205)" stroke="rgb(205,205,205)" stroke-width="1" opacity="1" d="M 218.5 148 L 221 148.5 L 218.5 149 L 218.5 148 Z " /><path fill="rgb(205,205,205)" stroke="rgb(205,205,205)" stroke-width="1" opacity="1" d="M 230.5 148 L 233 149.5 L 231.5 149 L 226.5 150 L 226.5 149 L 230.5 148 Z " /><path fill="rgb(205,205,205)" stroke="rgb(205,205,205)" stroke-width="1" opacity="1" d="M 119.5 149 L 117.5 152 L 113.5 153 L 113.5 152 L 119.5 149 Z " /><path fill="rgb(205,205,205)" stroke="rgb(205,205,205)" stroke-width="1" opacity="1" d="M 237.5 149 L 242 152.5 L 239.5 151 L 237.5 149 Z " /><path fill="rgb(205,205,205)" stroke="rgb(205,205,205)" stroke-width="1" opacity="1" d="M 111.5 153 L 111 154.5 Q 111.8 156.8 109.5 156 L 100.5 164 L 101 162.5 L 102.5 160 L 111.5 153 Z " /><path fill="rgb(205,205,205)" stroke="rgb(205,205,205)" stroke-width="1" opacity="1" d="M 271.5 153 L 272 157 L 275.5 157 L 282 161.5 L 280.5 162 L 271 156.5 L 271.5 153 Z " /><path fill="rgb(205,205,205)" stroke="rgb(205,205,205)" stroke-width="1" opacity="1" d="M 248.5 155 L 257 161.5 L 255.5 165 L 256 163.5 Q 257.1 160.2 254.5 161 L 248.5 155 Z " /><path fill="rgb(205,205,205)" stroke="rgb(205,205,205)" stroke-width="1" opacity="1" d="M 395.5 155 L 398 158.5 L 396.5 161 L 396 159.5 L 397 157.5 L 395.5 155 Z " /><path fill="rgb(205,205,205)" stroke="rgb(205,205,205)" stroke-width="1" opacity="1" d="M 284.5 161 L 289 161.5 L 284.5 162 L 284.5 161 Z " /><path fill="rgb(205,205,205)" stroke="rgb(205,205,205)" stroke-width="1" opacity="1" d="M 290.5 162 L 294.5 162 L 301 166.5 L 299.5 166 L 294.5 163 L 290.5 163 L 290.5 162 Z " /><path fill="rgb(205,205,205)" stroke="rgb(205,205,205)" stroke-width="1" opacity="1" d="M 306.5 164 Q 308.8 163.3 308 165.5 L 310.5 167 Q 312.2 164.3 318.5 166 L 318.5 167 L 309.5 168 L 306.5 165 L 305.5 166 L 302.5 168 L 304.5 165 L 306.5 164 Z " /><path fill="rgb(205,205,205)" stroke="rgb(205,205,205)" stroke-width="1" opacity="1" d="M 394.5 164 Q 396.8 164.8 396 168.5 L 395 168.5 L 394.5 164 Z " /><path fill="rgb(205,205,205)" stroke="rgb(205,205,205)" stroke-width="1" opacity="1" d="M 99.5 165 L 99 166.5 L 97.5 169 L 98 167.5 L 99.5 165 Z " /><path fill="rgb(205,205,205)" stroke="rgb(205,205,205)" stroke-width="1" opacity="1" d="M 326.5 166 Q 328.8 165.3 328 167.5 L 325.5 168 L 324 167.5 L 326.5 166 Z " /><path fill="rgb(205,205,205)" stroke="rgb(205,205,205)" stroke-width="1" opacity="1" d="M 337.5 167 L 343 169.5 L 340.5 170 L 337.5 167 Z " /><path fill="rgb(205,205,205)" stroke="rgb(205,205,205)" stroke-width="1" opacity="1" d="M 254.5 168 L 258 175.5 L 254.5 180 L 256 177.5 L 257 173.5 L 254.5 170 L 253 170.5 L 254.5 168 Z " /><path fill="rgb(205,205,205)" stroke="rgb(205,205,205)" stroke-width="1" opacity="1" d="M 346.5 168 L 349 168.5 L 344.5 171 L 346.5 168 Z " /><path fill="rgb(205,205,205)" stroke="rgb(205,205,205)" stroke-width="1" opacity="1" d="M 351.5 169 L 354 170.5 L 352.5 170 L 351.5 169 Z " /><path fill="rgb(205,205,205)" stroke="rgb(205,205,205)" stroke-width="1" opacity="1" d="M 98.5 170 L 102 172.5 L 100 173 Q 101.1 170.3 98.5 171 L 98.5 170 Z " /><path fill="rgb(205,205,205)" stroke="rgb(205,205,205)" stroke-width="1" opacity="1" d="M 357.5 170 L 363 170 L 363 172.5 L 362 172.5 Q 362.9 169.1 357.5 171 L 355.5 172 L 355.5 171 L 357.5 170 Z " /><path fill="rgb(205,205,205)" stroke="rgb(205,205,205)" stroke-width="1" opacity="1" d="M 393.5 173 L 394 174.5 Q 391.5 176 393 181.5 L 394 183.5 L 393 185.5 L 394 187.5 L 390.5 193 L 391 191.5 L 393 186.5 L 392 184.5 L 393 182.5 Q 390.5 181 392 175.5 L 393.5 173 Z " /><path fill="rgb(205,205,205)" stroke="rgb(205,205,205)" stroke-width="1" opacity="1" d="M 360.5 174 L 361 175.5 L 359.5 179 L 359 176.5 L 360.5 174 Z " /><path fill="rgb(205,205,205)" stroke="rgb(205,205,205)" stroke-width="1" opacity="1" d="M 103.5 177 L 104 178.5 L 103 182 L 106 182.5 L 103.5 183 L 102 179.5 L 103.5 177 Z " /><path fill="rgb(205,205,205)" stroke="rgb(205,205,205)" stroke-width="1" opacity="1" d="M 358.5 180 L 359 183.5 L 358 183.5 L 358.5 180 Z " /><path fill="rgb(205,205,205)" stroke="rgb(205,205,205)" stroke-width="1" opacity="1" d="M 247 181 L 251 181.5 L 246.5 184 L 242.5 185 L 242.5 184 L 247 183 L 247 181 Z " /><path fill="rgb(205,205,205)" stroke="rgb(205,205,205)" stroke-width="1" opacity="1" d="M 107.5 183 L 111 184.5 L 108.5 185 L 107.5 183 Z " /><path fill="rgb(205,205,205)" stroke="rgb(205,205,205)" stroke-width="1" opacity="1" d="M 130 184 Q 132.7 182.9 132 185.5 L 133 187.5 L 131 188.5 L 132 186.5 L 130.5 187 L 129 186.5 L 130 184 Z " /><path fill="rgb(205,205,205)" stroke="rgb(205,205,205)" stroke-width="1" opacity="1" d="M 112.5 185 L 121 186.5 L 115.5 187 L 112.5 186 L 112.5 185 Z " /><path fill="rgb(205,205,205)" stroke="rgb(205,205,205)" stroke-width="1" opacity="1" d="M 238.5 185 L 237.5 187 L 235 186.5 L 238.5 185 Z " /><path fill="rgb(205,205,205)" stroke="rgb(205,205,205)" stroke-width="1" opacity="1" d="M 123.5 187 L 126 187.5 L 123.5 188 L 123.5 187 Z " /><path fill="rgb(205,205,205)" stroke="rgb(205,205,205)" stroke-width="1" opacity="1" d="M 235.5 188 L 240 191.5 L 238.5 191 L 235.5 188 Z " /><path fill="rgb(205,205,205)" stroke="rgb(205,205,205)" stroke-width="1" opacity="1" d="M 129.5 189 L 125.5 194 L 129.5 189 Z " /><path fill="rgb(205,205,205)" stroke="rgb(205,205,205)" stroke-width="1" opacity="1" d="M 357.5 191 L 358 193.5 L 354 196.5 L 357.5 191 Z " /><path fill="rgb(205,205,205)" stroke="rgb(205,205,205)" stroke-width="1" opacity="1" d="M 240.5 193 L 248 206.5 L 249 213.5 L 248 216 L 250 216.5 L 248.5 217 L 247 214.5 L 248 210.5 L 240.5 193 Z " /><path fill="rgb(205,205,205)" stroke="rgb(205,205,205)" stroke-width="1" opacity="1" d="M 390.5 195 L 392 197.5 L 388 200 L 389 202.5 L 387 201.5 L 388.5 199 L 391 197.5 L 390.5 195 Z " /><path fill="rgb(205,205,205)" stroke="rgb(205,205,205)" stroke-width="1" opacity="1" d="M 125.5 196 L 127 200 L 124 201.5 L 123.5 205 L 123 201.5 L 126 197.5 L 125.5 196 Z " /><path fill="rgb(205,205,205)" stroke="rgb(205,205,205)" stroke-width="1" opacity="1" d="M 170.5 196 L 174 197.5 L 172.5 198 L 170.5 197 L 167.5 199 L 168.5 197 L 170.5 196 Z " /><path fill="rgb(205,205,205)" stroke="rgb(205,205,205)" stroke-width="1" opacity="1" d="M 175.5 197 L 180 198.5 L 176.5 199 L 175.5 197 Z " /><path fill="rgb(205,205,205)" stroke="rgb(205,205,205)" stroke-width="1" opacity="1" d="M 182.5 198 L 188 198.5 L 182.5 199 L 182.5 198 Z " /><path fill="rgb(205,205,205)" stroke="rgb(205,205,205)" stroke-width="1" opacity="1" d="M 192.5 198 L 197 200.5 L 195.5 200 Q 191.7 199.7 192.5 198 Z " /><path fill="rgb(205,205,205)" stroke="rgb(205,205,205)" stroke-width="1" opacity="1" d="M 355.5 198 L 356 200.5 L 354 201.5 L 355.5 198 Z " /><path fill="rgb(205,205,205)" stroke="rgb(205,205,205)" stroke-width="1" opacity="1" d="M 165.5 199 L 166 201.5 L 159.5 205 L 159.5 204 L 165 202 L 165.5 199 Z " /><path fill="rgb(205,205,205)" stroke="rgb(205,205,205)" stroke-width="1" opacity="1" d="M 198.5 201 L 204 203.5 L 202.5 204 L 198.5 202 L 198.5 201 Z " /><path fill="rgb(205,205,205)" stroke="rgb(205,205,205)" stroke-width="1" opacity="1" d="M 206.5 203 L 212 210.5 L 209 208.5 Q 209.8 206.3 207.5 207 Q 205 206 206.5 203 Z " /><path fill="rgb(205,205,205)" stroke="rgb(205,205,205)" stroke-width="1" opacity="1" d="M 354.5 204 L 356 206.5 L 354.5 215 L 354 207.5 L 354 205.5 L 354.5 204 Z " /><path fill="rgb(205,205,205)" stroke="rgb(205,205,205)" stroke-width="1" opacity="1" d="M 123.5 206 Q 125.8 206.8 125 210.5 Q 120.5 214 121 222.5 L 121.5 224 Q 118.8 222.8 120 217.5 L 124 210.5 L 124 207.5 L 123.5 206 Z " /><path fill="rgb(205,205,205)" stroke="rgb(205,205,205)" stroke-width="1" opacity="1" d="M 389.5 206 L 388 208.5 Q 389.2 215.2 386 217.5 Q 388.2 218.7 387 223.5 L 386 223.5 Q 387.2 218.7 385 217.5 Q 388.2 215.2 387 208.5 L 389.5 206 Z " /><path fill="rgb(205,205,205)" stroke="rgb(205,205,205)" stroke-width="1" opacity="1" d="M 158.5 207 L 158 208.5 L 157.5 211 L 157 208.5 L 158.5 207 Z " /><path fill="rgb(205,205,205)" stroke="rgb(205,205,205)" stroke-width="1" opacity="1" d="M 157.5 214 L 158 216.5 L 156 223.5 Q 158.8 224.3 158 228.5 L 157 228.5 L 157 225 Q 154 226.3 155 222.5 L 157.5 214 Z " /><path fill="rgb(205,205,205)" stroke="rgb(205,205,205)" stroke-width="1" opacity="1" d="M 213.5 215 L 214.5 217 L 213.5 215 Z " /><path fill="rgb(205,205,205)" stroke="rgb(205,205,205)" stroke-width="1" opacity="1" d="M 215.5 218 L 216 221.5 L 215 221.5 L 215.5 218 Z " /><path fill="rgb(205,205,205)" stroke="rgb(205,205,205)" stroke-width="1" opacity="1" d="M 249.5 218 L 251 221.5 L 250 221.5 L 249.5 218 Z " /><path fill="rgb(205,205,205)" stroke="rgb(205,205,205)" stroke-width="1" opacity="1" d="M 351.5 222 L 352 228.5 L 349 230.5 Q 352 228 351.5 222 Z " /><path fill="rgb(205,205,205)" stroke="rgb(205,205,205)" stroke-width="1" opacity="1" d="M 250.5 224 L 252 226.5 L 250 230.5 L 251 233.5 L 248 235 Q 249.8 242.1 245.5 244 L 247 241.5 Q 245.5 235.5 248.5 234 Q 251.1 234.8 250 231.5 L 249 228.5 L 251 225.5 L 250.5 224 Z " /><path fill="rgb(205,205,205)" stroke="rgb(205,205,205)" stroke-width="1" opacity="1" d="M 121.5 225 L 122.5 227 L 121.5 225 Z " /><path fill="rgb(205,205,205)" stroke="rgb(205,205,205)" stroke-width="1" opacity="1" d="M 215.5 227 L 216 228.5 L 213 230.5 L 215.5 227 Z " /><path fill="rgb(205,205,205)" stroke="rgb(205,205,205)" stroke-width="1" opacity="1" d="M 384.5 230 L 385 234.5 L 384 234.5 L 384.5 230 Z " /><path fill="rgb(205,205,205)" stroke="rgb(205,205,205)" stroke-width="1" opacity="1" d="M 123.5 231 L 125 234.5 L 124 236.5 L 125 241.5 L 128 245.5 L 127 245.5 L 125 242.5 L 123 236.5 L 123.5 231 Z " /><path fill="rgb(205,205,205)" stroke="rgb(205,205,205)" stroke-width="1" opacity="1" d="M 212.5 232 L 211.5 234 Q 208.9 233.2 210 236.5 L 209 236.5 L 210.5 233 L 212.5 232 Z " /><path fill="rgb(205,205,205)" stroke="rgb(205,205,205)" stroke-width="1" opacity="1" d="M 350.5 232 L 351 239.5 L 349.5 242 L 349 240.5 L 350.5 232 Z " /><path fill="rgb(205,205,205)" stroke="rgb(205,205,205)" stroke-width="1" opacity="1" d="M 157.5 234 L 162 238.5 L 165 246 L 167 246.5 L 164 247 L 164 243.5 L 159.5 237 Q 157.3 237.8 158 235.5 L 157.5 234 Z " /><path fill="rgb(205,205,205)" stroke="rgb(205,205,205)" stroke-width="1" opacity="1" d="M 384.5 236 L 385 237.5 L 383 241.5 L 383.5 243 L 382 239.5 L 384.5 236 Z " /><path fill="rgb(205,205,205)" stroke="rgb(205,205,205)" stroke-width="1" opacity="1" d="M 208.5 238 L 209.5 240 L 207 239.5 L 208.5 238 Z " /><path fill="rgb(205,205,205)" stroke="rgb(205,205,205)" stroke-width="1" opacity="1" d="M 205.5 240 L 204.5 242 L 205.5 240 Z " /><path fill="rgb(205,205,205)" stroke="rgb(205,205,205)" stroke-width="1" opacity="1" d="M 203.5 243 L 202.5 245 L 203.5 243 Z " /><path fill="rgb(205,205,205)" stroke="rgb(205,205,205)" stroke-width="1" opacity="1" d="M 243.5 244 L 244 245.5 L 242.5 248 L 242 246.5 L 243.5 244 Z " /><path fill="rgb(205,205,205)" stroke="rgb(205,205,205)" stroke-width="1" opacity="1" d="M 383.5 244 L 384 245.5 L 376.5 253 L 373 253 L 370.5 258 L 370 256.5 L 374.5 251 L 376.5 252 L 383.5 244 Z " /><path fill="rgb(205,205,205)" stroke="rgb(205,205,205)" stroke-width="1" opacity="1" d="M 349.5 246 L 353 247 L 352.5 249 L 349.5 246 Z " /><path fill="rgb(205,205,205)" stroke="rgb(205,205,205)" stroke-width="1" opacity="1" d="M 167.5 248 L 174 253.5 L 170.5 251 L 167.5 248 Z " /><path fill="rgb(205,205,205)" stroke="rgb(205,205,205)" stroke-width="1" opacity="1" d="M 193.5 248 L 195 248.5 L 193 249 Q 194.8 253.5 189.5 252 L 187 253.5 Q 188.2 250.3 192 251 L 193.5 248 Z " /><path fill="rgb(205,205,205)" stroke="rgb(205,205,205)" stroke-width="1" opacity="1" d="M 354.5 250 L 357.5 254 L 354.5 250 Z " /><path fill="rgb(205,205,205)" stroke="rgb(205,205,205)" stroke-width="1" opacity="1" d="M 178.5 252 L 180 252.5 L 176.5 254 L 176.5 253 L 178.5 252 Z " /><path fill="rgb(205,205,205)" stroke="rgb(205,205,205)" stroke-width="1" opacity="1" d="M 181.5 253 L 184.5 254 L 186 253.5 L 183.5 255 L 181.5 253 Z " /><path fill="rgb(205,205,205)" stroke="rgb(205,205,205)" stroke-width="1" opacity="1" d="M 364.5 254 L 366 256.5 L 365 256.5 L 364.5 255 L 361.5 256 L 361.5 255 L 364.5 254 Z " /><path fill="rgb(205,205,205)" stroke="rgb(205,205,205)" stroke-width="1" opacity="1" d="M 131.5 255 L 135 257 L 134.5 260 L 131.5 255 Z " /><path fill="rgb(205,205,205)" stroke="rgb(205,205,205)" stroke-width="1" opacity="1" d="M 236.5 258 L 238 258.5 L 229 262 Q 230.5 267.4 227.5 269 L 226 268.5 L 228 268 L 227 262.5 L 236.5 258 Z " /><path fill="rgb(205,205,205)" stroke="rgb(205,205,205)" stroke-width="1" opacity="1" d="M 366.5 258 L 369 258.5 L 366.5 259 L 366.5 258 Z " /><path fill="rgb(205,205,205)" stroke="rgb(205,205,205)" stroke-width="1" opacity="1" d="M 135.5 261 L 139 267.5 L 138 267.5 L 135.5 261 Z " /><path fill="rgb(205,205,205)" stroke="rgb(205,205,205)" stroke-width="1" opacity="1" d="M 140.5 268 L 143 272.5 L 141 271.5 L 140.5 268 Z " /><path fill="rgb(205,205,205)" stroke="rgb(205,205,205)" stroke-width="1" opacity="1" d="M 223.5 269 L 225 269.5 Q 223.7 273.7 217.5 273 L 217.5 272 Q 222.7 272.7 223.5 269 Z " /><path fill="rgb(205,205,205)" stroke="rgb(205,205,205)" stroke-width="1" opacity="1" d="M 145.5 273 L 146 275 L 154 279.5 L 152.5 280 L 145 274.5 L 145.5 273 Z " /><path fill="rgb(205,205,205)" stroke="rgb(205,205,205)" stroke-width="1" opacity="1" d="M 216.5 274 L 215.5 276 L 216.5 274 Z " /><path fill="rgb(205,205,205)" stroke="rgb(205,205,205)" stroke-width="1" opacity="1" d="M 333.5 275 L 335 275.5 L 333 276 Q 334.1 278.7 331.5 278 L 333.5 275 Z " /><path fill="rgb(205,205,205)" stroke="rgb(205,205,205)" stroke-width="1" opacity="1" d="M 210 277 L 212 277.5 L 209.5 281 L 203.5 283 L 204.5 281 L 210 280 L 210 277 Z " /><path fill="rgb(205,205,205)" stroke="rgb(205,205,205)" stroke-width="1" opacity="1" d="M 328.5 277 L 330 277.5 L 323.5 280 L 322.5 279 L 320 280.5 Q 321.7 276.3 323.5 279 L 328.5 277 Z " /><path fill="rgb(205,205,205)" stroke="rgb(205,205,205)" stroke-width="1" opacity="1" d="M 340.5 277 L 344 278.5 L 342.5 278 Q 339.5 278.5 340.5 277 Z " /><path fill="rgb(205,205,205)" stroke="rgb(205,205,205)" stroke-width="1" opacity="1" d="M 345.5 278 Q 351.3 277.2 353 280.5 L 351.5 280 L 345.5 279 L 345.5 278 Z " /><path fill="rgb(205,205,205)" stroke="rgb(205,205,205)" stroke-width="1" opacity="1" d="M 154.5 281 L 155.5 283 L 154.5 281 Z " /><path fill="rgb(205,205,205)" stroke="rgb(205,205,205)" stroke-width="1" opacity="1" d="M 359.5 281 L 365.5 286 Q 370 285 371 287.5 L 370.5 290 L 370 287 L 364.5 287 L 364 285.5 L 359.5 281 Z " /><path fill="rgb(205,205,205)" stroke="rgb(205,205,205)" stroke-width="1" opacity="1" d="M 308.5 282 L 311 282.5 L 308.5 283 L 308.5 282 Z " /><path fill="rgb(205,205,205)" stroke="rgb(205,205,205)" stroke-width="1" opacity="1" d="M 312.5 282 L 320 282.5 L 312.5 283 L 312.5 282 Z " /><path fill="rgb(205,205,205)" stroke="rgb(205,205,205)" stroke-width="1" opacity="1" d="M 160.5 283 L 164.5 286 Q 166 283.5 167.5 287 L 170.5 286 L 175 287.5 L 171.5 288 L 169.5 288 L 165.5 286 L 162 287 L 160.5 283 Z " /><path fill="rgb(205,205,205)" stroke="rgb(205,205,205)" stroke-width="1" opacity="1" d="M 202.5 284 L 201.5 286 L 202.5 284 Z " /><path fill="rgb(205,205,205)" stroke="rgb(205,205,205)" stroke-width="1" opacity="1" d="M 301.5 284 L 307 284.5 L 301.5 285 L 301.5 284 Z " /><path fill="rgb(205,205,205)" stroke="rgb(205,205,205)" stroke-width="1" opacity="1" d="M 299.5 285 L 300 286.5 Q 297.1 293 289 293 L 287.5 296 L 288 294.5 Q 286.7 290.3 291.5 292 L 295 291 Q 293.9 288.3 296.5 289 L 299.5 285 Z " /><path fill="rgb(205,205,205)" stroke="rgb(205,205,205)" stroke-width="1" opacity="1" d="M 190.5 286 L 189.5 288 L 187 287.5 L 190.5 286 Z " /><path fill="rgb(205,205,205)" stroke="rgb(205,205,205)" stroke-width="1" opacity="1" d="M 192.5 286 L 198 286.5 L 192.5 287 L 192.5 286 Z " /><path fill="rgb(205,205,205)" stroke="rgb(205,205,205)" stroke-width="1" opacity="1" d="M 178.5 287 L 187 289.5 L 183.5 290 L 179.5 288 L 176.5 289 L 176.5 288 L 178.5 287 Z " /><path fill="rgb(205,205,205)" stroke="rgb(205,205,205)" stroke-width="1" opacity="1" d="M 372.5 290 L 374.5 290 L 384 297.5 L 381.5 296 L 374.5 291 L 372.5 291 L 372.5 290 Z " /><path fill="rgb(205,205,205)" stroke="rgb(205,205,205)" stroke-width="1" opacity="1" d="M 119.5 291 L 121.5 292 L 123.5 291 L 123.5 292 L 120.5 293 Q 119.3 290.8 118 293.5 L 114.5 300 L 114 297.5 L 115 295 Q 117.7 296.1 117 293.5 L 119.5 291 Z " /><path fill="rgb(205,205,205)" stroke="rgb(205,205,205)" stroke-width="1" opacity="1" d="M 126.5 291 L 131 291.5 L 126.5 292 L 126.5 291 Z " /><path fill="rgb(205,205,205)" stroke="rgb(205,205,205)" stroke-width="1" opacity="1" d="M 134.5 292 L 135.5 294 L 134.5 292 Z " /><path fill="rgb(205,205,205)" stroke="rgb(205,205,205)" stroke-width="1" opacity="1" d="M 136.5 295 L 141 301.5 L 139 300.5 L 136.5 295 Z " /><path fill="rgb(205,205,205)" stroke="rgb(205,205,205)" stroke-width="1" opacity="1" d="M 283.5 298 L 284 299.5 L 279.5 306 L 279 304.5 L 283.5 298 Z " /><path fill="rgb(205,205,205)" stroke="rgb(205,205,205)" stroke-width="1" opacity="1" d="M 384.5 299 L 385 301 L 388 301.5 L 384 302 L 384.5 299 Z " /><path fill="rgb(205,205,205)" stroke="rgb(205,205,205)" stroke-width="1" opacity="1" d="M 115.5 301 L 116 303.5 L 115 303.5 L 115.5 301 Z " /><path fill="rgb(205,205,205)" stroke="rgb(205,205,205)" stroke-width="1" opacity="1" d="M 142.5 305 L 143.5 307 L 142.5 305 Z " /><path fill="rgb(205,205,205)" stroke="rgb(205,205,205)" stroke-width="1" opacity="1" d="M 276.5 307 L 275.5 309 L 276.5 307 Z " /><path fill="rgb(205,205,205)" stroke="rgb(205,205,205)" stroke-width="1" opacity="1" d="M 114.5 308 L 115 312.5 L 114 312.5 L 114.5 308 Z " /><path fill="rgb(205,205,205)" stroke="rgb(205,205,205)" stroke-width="1" opacity="1" d="M 144.5 308 Q 146.8 308.8 146 312.5 L 145 312.5 L 144.5 308 Z " /><path fill="rgb(205,205,205)" stroke="rgb(205,205,205)" stroke-width="1" opacity="1" d="M 323.5 308 L 322.5 310 L 316 314 Q 317.1 316.7 314.5 316 L 311.5 318 L 311.5 317 L 319 311.5 Q 318.3 309.3 320.5 310 L 323.5 308 Z " /><path fill="rgb(205,205,205)" stroke="rgb(205,205,205)" stroke-width="1" opacity="1" d="M 392.5 308 L 394 311.5 L 392 310.5 L 392.5 308 Z " /><path fill="rgb(205,205,205)" stroke="rgb(205,205,205)" stroke-width="1" opacity="1" d="M 274.5 310 L 275 311.5 L 271.5 316 L 271 314.5 L 274.5 310 Z " /><path fill="rgb(205,205,205)" stroke="rgb(205,205,205)" stroke-width="1" opacity="1" d="M 330.5 310 L 335 310.5 L 330.5 311 L 330.5 310 Z " /><path fill="rgb(205,205,205)" stroke="rgb(205,205,205)" stroke-width="1" opacity="1" d="M 337.5 310 L 344 312.5 L 342.5 313 L 337.5 311 L 337.5 310 Z " /><path fill="rgb(205,205,205)" stroke="rgb(205,205,205)" stroke-width="1" opacity="1" d="M 347.5 312 L 348 314 Q 351.8 313.3 353 316.5 L 352.5 318 L 351 315 L 347 313.5 L 347.5 312 Z " /><path fill="rgb(205,205,205)" stroke="rgb(205,205,205)" stroke-width="1" opacity="1" d="M 395.5 312 L 398 315.5 L 395 313.5 L 395.5 312 Z " /><path fill="rgb(205,205,205)" stroke="rgb(205,205,205)" stroke-width="1" opacity="1" d="M 115.5 314 L 115 315.5 L 116 320.5 L 115 320.5 L 114 315.5 L 115.5 314 Z " /><path fill="rgb(205,205,205)" stroke="rgb(205,205,205)" stroke-width="1" opacity="1" d="M 147.5 317 L 149.5 320 L 147.5 317 Z " /><path fill="rgb(205,205,205)" stroke="rgb(205,205,205)" stroke-width="1" opacity="1" d="M 272.5 317 L 273 318.5 L 269 325.5 L 269 328.5 L 271 331.5 L 269 334.5 Q 271.3 335.8 268.5 337 L 268 334.5 L 270 331.5 Q 267.4 330.1 268 325.5 L 272.5 317 Z " /><path fill="rgb(205,205,205)" stroke="rgb(205,205,205)" stroke-width="1" opacity="1" d="M 355.5 318 L 358.5 322 L 355.5 318 Z " /><path fill="rgb(205,205,205)" stroke="rgb(205,205,205)" stroke-width="1" opacity="1" d="M 400.5 318 L 405 330.5 L 405 332.5 L 408 338.5 L 407 338.5 L 407 336.5 L 403 331.5 L 404 329.5 L 400 320.5 L 400.5 318 Z " /><path fill="rgb(205,205,205)" stroke="rgb(205,205,205)" stroke-width="1" opacity="1" d="M 307.5 320 L 308 321.5 L 305.5 325 L 306 323.5 L 307.5 320 Z " /><path fill="rgb(205,205,205)" stroke="rgb(205,205,205)" stroke-width="1" opacity="1" d="M 149.5 321 L 150 323.5 L 149 324.5 L 153 328.5 L 152 331.5 L 152.5 333 L 151 330.5 L 152 328.5 L 148 324.5 L 149 323.5 L 149.5 321 Z " /><path fill="rgb(205,205,205)" stroke="rgb(205,205,205)" stroke-width="1" opacity="1" d="M 360.5 322 L 366 328.5 L 363 326.5 L 360.5 322 Z " /><path fill="rgb(205,205,205)" stroke="rgb(205,205,205)" stroke-width="1" opacity="1" d="M 116.5 326 L 116 327.5 L 120 333.5 Q 118.7 340.3 121 343.5 L 120 343.5 L 119 334.5 L 115 327.5 L 116.5 326 Z " /><path fill="rgb(205,205,205)" stroke="rgb(205,205,205)" stroke-width="1" opacity="1" d="M 303.5 327 L 304 329 Q 300.7 327.7 302 332.5 L 301 332.5 Q 300.3 327.8 303.5 327 Z " /><path fill="rgb(205,205,205)" stroke="rgb(205,205,205)" stroke-width="1" opacity="1" d="M 366.5 331 L 371 334.5 L 369.5 335 L 366 333 L 366.5 331 Z " /><path fill="rgb(205,205,205)" stroke="rgb(205,205,205)" stroke-width="1" opacity="1" d="M 301.5 335 L 303 338.5 L 303 340.5 L 302.5 342 L 301 339.5 L 302 337.5 L 301.5 335 Z " /><path fill="rgb(205,205,205)" stroke="rgb(205,205,205)" stroke-width="1" opacity="1" d="M 372.5 337 L 374 342.5 L 373 342.5 L 372.5 337 Z " /><path fill="rgb(205,205,205)" stroke="rgb(205,205,205)" stroke-width="1" opacity="1" d="M 152.5 338 L 153 341.5 L 152 341.5 L 152.5 338 Z " /><path fill="rgb(205,205,205)" stroke="rgb(205,205,205)" stroke-width="1" opacity="1" d="M 269.5 341 L 270 346.5 L 269 346.5 L 269.5 341 Z " /><path fill="rgb(205,205,205)" stroke="rgb(205,205,205)" stroke-width="1" opacity="1" d="M 408.5 342 Q 410.8 342.8 410 346.5 L 409 346.5 L 408.5 342 Z " /><path fill="rgb(205,205,205)" stroke="rgb(205,205,205)" stroke-width="1" opacity="1" d="M 153.5 343 L 155 345.5 L 153 344.5 L 153.5 343 Z " /><path fill="rgb(205,205,205)" stroke="rgb(205,205,205)" stroke-width="1" opacity="1" d="M 374.5 344 Q 379.3 346.3 375 348.5 L 375 353.5 Q 371.8 354.9 373 360 L 369 361.5 L 367.5 365 L 362 367 L 360.5 371 L 359 370.5 L 361 370 L 362.5 366 L 368 364 L 369 359 Q 373.5 360.8 372 355.5 Q 375.7 353.6 374 347 L 376 346.5 L 374.5 344 Z " /><path fill="rgb(205,205,205)" stroke="rgb(205,205,205)" stroke-width="1" opacity="1" d="M 120.5 345 L 120 346.5 L 118.5 353 L 118 350.5 L 120.5 345 Z " /><path fill="rgb(205,205,205)" stroke="rgb(205,205,205)" stroke-width="1" opacity="1" d="M 302.5 345 L 303 346.5 L 302 349 L 304 349.5 L 302.5 350 L 301 347.5 L 302.5 345 Z " /><path fill="rgb(205,205,205)" stroke="rgb(205,205,205)" stroke-width="1" opacity="1" d="M 252.5 348 L 250.5 351 Q 244.8 349.8 243.5 353 L 243 351 L 240 350.5 L 242.5 350 L 244.5 351 Q 245.7 348.7 250.5 350 L 252.5 348 Z " /><path fill="rgb(205,205,205)" stroke="rgb(205,205,205)" stroke-width="1" opacity="1" d="M 269.5 348 L 270 356.5 L 272 360.5 L 271 360.5 L 269 356.5 L 269.5 348 Z " /><path fill="rgb(205,205,205)" stroke="rgb(205,205,205)" stroke-width="1" opacity="1" d="M 254.5 349 L 261 354.5 Q 259.5 358.9 262.5 358 L 266 362.5 L 263 367.5 L 265 371.5 L 264 371.5 L 262 366.5 L 265 362.5 L 263 359 L 260 357.5 Q 260.8 351.8 256.5 351 L 254.5 349 Z " /><path fill="rgb(205,205,205)" stroke="rgb(205,205,205)" stroke-width="1" opacity="1" d="M 409.5 349 L 410 353.5 L 408.5 359 L 408 354.5 L 409.5 349 Z " /><path fill="rgb(205,205,205)" stroke="rgb(205,205,205)" stroke-width="1" opacity="1" d="M 233.5 352 L 232.5 354 L 229.5 355 L 229.5 354 L 233.5 352 Z " /><path fill="rgb(205,205,205)" stroke="rgb(205,205,205)" stroke-width="1" opacity="1" d="M 153.5 354 L 156 354 L 156 360.5 L 155 360.5 Q 156.3 354.4 153.5 355 L 153.5 354 Z " /><path fill="rgb(205,205,205)" stroke="rgb(205,205,205)" stroke-width="1" opacity="1" d="M 223.5 354 L 225.5 355 L 227.5 354 L 227.5 355 L 225.5 356 L 223.5 354 Z " /><path fill="rgb(205,205,205)" stroke="rgb(205,205,205)" stroke-width="1" opacity="1" d="M 120.5 355 L 122 369.5 L 121 369.5 L 120.5 355 Z " /><path fill="rgb(205,205,205)" stroke="rgb(205,205,205)" stroke-width="1" opacity="1" d="M 211.5 355 L 215 355.5 L 210.5 357 L 211.5 355 Z " /><path fill="rgb(205,205,205)" stroke="rgb(205,205,205)" stroke-width="1" opacity="1" d="M 221.5 355 L 220.5 357 L 218 356.5 L 221.5 355 Z " /><path fill="rgb(205,205,205)" stroke="rgb(205,205,205)" stroke-width="1" opacity="1" d="M 305.5 355 L 308.5 359 Q 313.1 357.6 311 363.5 L 311.5 365 L 310 365 L 310 360 L 308.5 360 L 305.5 355 Z " /><path fill="rgb(205,205,205)" stroke="rgb(205,205,205)" stroke-width="1" opacity="1" d="M 204.5 359 L 203.5 361 L 196.5 361 L 196 362.5 L 195 362.5 L 196.5 360 Q 202.7 361.8 204.5 359 Z " /><path fill="rgb(205,205,205)" stroke="rgb(205,205,205)" stroke-width="1" opacity="1" d="M 156.5 362 L 158 364.5 L 157 364.5 L 156.5 362 Z " /><path fill="rgb(205,205,205)" stroke="rgb(205,205,205)" stroke-width="1" opacity="1" d="M 185.5 362 L 191 363.5 L 188.5 364 L 185.5 363 L 180.5 365 L 180.5 364 L 185.5 362 Z " /><path fill="rgb(205,205,205)" stroke="rgb(205,205,205)" stroke-width="1" opacity="1" d="M 406.5 363 L 407 365.5 L 406 365.5 L 406.5 363 Z " /><path fill="rgb(205,205,205)" stroke="rgb(205,205,205)" stroke-width="1" opacity="1" d="M 273.5 364 L 276 368.5 L 274 369 L 273.5 364 Z " /><path fill="rgb(205,205,205)" stroke="rgb(205,205,205)" stroke-width="1" opacity="1" d="M 313.5 364 L 316 365.5 Q 315.5 369.5 318.5 370 L 323 369 L 324.5 372 L 329 372.5 L 324.5 373 L 320.5 370 L 318.5 371 Q 314.3 369.7 315 365 L 313.5 364 Z " /><path fill="rgb(205,205,205)" stroke="rgb(205,205,205)" stroke-width="1" opacity="1" d="M 173.5 365 L 175.5 366 L 178.5 365 L 178.5 366 L 174.5 367 L 173.5 365 Z " /><path fill="rgb(205,205,205)" stroke="rgb(205,205,205)" stroke-width="1" opacity="1" d="M 156.5 366 L 157 371.5 L 156 371.5 L 156.5 366 Z " /><path fill="rgb(205,205,205)" stroke="rgb(205,205,205)" stroke-width="1" opacity="1" d="M 171.5 366 L 169.5 369 L 166 368.5 Q 170.3 368.8 171.5 366 Z " /><path fill="rgb(205,205,205)" stroke="rgb(205,205,205)" stroke-width="1" opacity="1" d="M 161.5 367 L 164 367.5 L 161 368 Q 162.1 370.7 159.5 370 L 158 370.5 L 161.5 367 Z " /><path fill="rgb(205,205,205)" stroke="rgb(205,205,205)" stroke-width="1" opacity="1" d="M 406.5 368 L 405.5 370 L 406.5 368 Z " /><path fill="rgb(205,205,205)" stroke="rgb(205,205,205)" stroke-width="1" opacity="1" d="M 276.5 370 L 281 375.5 L 277 372.5 L 276.5 370 Z " /><path fill="rgb(205,205,205)" stroke="rgb(205,205,205)" stroke-width="1" opacity="1" d="M 354.5 370 L 358 370.5 L 351.5 373 L 347 371.5 L 350.5 371 L 352.5 372 L 354.5 370 Z " /><path fill="rgb(205,205,205)" stroke="rgb(205,205,205)" stroke-width="1" opacity="1" d="M 403.5 370 L 401.5 373 L 403.5 370 Z " /><path fill="rgb(205,205,205)" stroke="rgb(205,205,205)" stroke-width="1" opacity="1" d="M 120.5 371 L 123 381.5 L 120 383 L 122 391.5 L 121 391.5 L 119 383.5 L 122 382 L 120.5 371 Z " /><path fill="rgb(205,205,205)" stroke="rgb(205,205,205)" stroke-width="1" opacity="1" d="M 336.5 372 L 339.5 373 L 341.5 372 L 343.5 373 L 345 372.5 L 342.5 374 L 340.5 373 L 338.5 374 L 336.5 373 L 335 373.5 L 336.5 372 Z " /><path fill="rgb(205,205,205)" stroke="rgb(205,205,205)" stroke-width="1" opacity="1" d="M 265.5 373 L 265 374.5 L 261.5 379 L 258.5 380 L 258.5 379 L 264 375.5 L 265.5 373 Z " /><path fill="rgb(205,205,205)" stroke="rgb(205,205,205)" stroke-width="1" opacity="1" d="M 330.5 373 L 334 373.5 L 330.5 374 L 330.5 373 Z " /><path fill="rgb(205,205,205)" stroke="rgb(205,205,205)" stroke-width="1" opacity="1" d="M 400.5 376 L 398.5 379 L 397 379 Q 398.5 382.8 395.5 382 L 389 387 L 387.5 390 Q 384.9 389.2 386 392.5 L 382.5 396 L 376.5 397 L 375 398.5 L 373.5 401 L 369.5 401 L 361.5 404 L 362.5 402 L 374 400 L 376.5 396 Q 382.9 396.4 385 392.5 L 386.5 389 Q 388.8 389.8 388 387.5 L 392 384.5 Q 391.3 382.3 393.5 383 L 397.5 378 L 400.5 376 Z " /><path fill="rgb(205,205,205)" stroke="rgb(205,205,205)" stroke-width="1" opacity="1" d="M 254.5 380 L 257 380.5 Q 251.9 380.9 250.5 385 L 250 383 L 254.5 380 Z " /><path fill="rgb(205,205,205)" stroke="rgb(205,205,205)" stroke-width="1" opacity="1" d="M 282.5 381 L 284 384.5 L 283 384.5 L 282.5 381 Z " /><path fill="rgb(205,205,205)" stroke="rgb(205,205,205)" stroke-width="1" opacity="1" d="M 240.5 384 L 247 384.5 L 240.5 385 L 240.5 384 Z " /><path fill="rgb(205,205,205)" stroke="rgb(205,205,205)" stroke-width="1" opacity="1" d="M 226 386 L 231 387.5 L 228.5 388 Q 226.8 385.3 225 389.5 L 224.5 391 L 224 389.5 L 226 386 Z " /><path fill="rgb(205,205,205)" stroke="rgb(205,205,205)" stroke-width="1" opacity="1" d="M 216.5 389 L 222 390.5 L 220.5 391 L 216 390 L 215.5 392 L 208.5 392 L 208.5 391 Q 215 392.5 216.5 389 Z " /><path fill="rgb(205,205,205)" stroke="rgb(205,205,205)" stroke-width="1" opacity="1" d="M 292.5 390 L 298 393.5 L 296.5 393 Q 292.1 394.5 293 391.5 L 292.5 390 Z " /><path fill="rgb(205,205,205)" stroke="rgb(205,205,205)" stroke-width="1" opacity="1" d="M 207.5 393 L 208 395 L 198.5 395 L 197.5 396 L 198.5 394 L 206.5 394 L 207.5 393 Z " /><path fill="rgb(205,205,205)" stroke="rgb(205,205,205)" stroke-width="1" opacity="1" d="M 123.5 395 L 126 398.5 L 124 399 L 123.5 395 Z " /><path fill="rgb(205,205,205)" stroke="rgb(205,205,205)" stroke-width="1" opacity="1" d="M 298.5 395 L 304 398.5 L 302.5 399 L 298.5 395 Z " /><path fill="rgb(205,205,205)" stroke="rgb(205,205,205)" stroke-width="1" opacity="1" d="M 185.5 396 L 189 397.5 L 186.5 398 L 185.5 396 Z " /><path fill="rgb(205,205,205)" stroke="rgb(205,205,205)" stroke-width="1" opacity="1" d="M 190.5 396 L 194 396.5 L 190.5 397 L 190.5 396 Z " /><path fill="rgb(205,205,205)" stroke="rgb(205,205,205)" stroke-width="1" opacity="1" d="M 184.5 398 L 184 399.5 L 182.5 402 L 181 401.5 L 183 401 L 184.5 398 Z " /><path fill="rgb(205,205,205)" stroke="rgb(205,205,205)" stroke-width="1" opacity="1" d="M 173.5 399 L 176 399.5 L 173.5 400 L 173.5 399 Z " /><path fill="rgb(205,205,205)" stroke="rgb(205,205,205)" stroke-width="1" opacity="1" d="M 171.5 400 L 170.5 402 L 164.5 404 L 164.5 403 L 171.5 400 Z " /><path fill="rgb(205,205,205)" stroke="rgb(205,205,205)" stroke-width="1" opacity="1" d="M 177.5 400 L 180 400.5 L 177.5 401 L 177.5 400 Z " /><path fill="rgb(205,205,205)" stroke="rgb(205,205,205)" stroke-width="1" opacity="1" d="M 309.5 401 Q 314.8 399.8 316 402.5 Q 314.8 406.3 318.5 405 L 318.5 406 L 315 404.5 L 315 402 L 309.5 402 L 309.5 401 Z " /><path fill="rgb(205,205,205)" stroke="rgb(205,205,205)" stroke-width="1" opacity="1" d="M 133.5 403 L 136.5 405 L 138 404.5 L 135.5 406 L 133.5 403 Z " /><path fill="rgb(205,205,205)" stroke="rgb(205,205,205)" stroke-width="1" opacity="1" d="M 358 403 L 360 403.5 L 359 406 L 351 407 L 351.5 405 L 354.5 406 L 358 405 L 358 403 Z " /><path fill="rgb(205,205,205)" stroke="rgb(205,205,205)" stroke-width="1" opacity="1" d="M 139.5 404 L 143 404.5 L 139.5 405 L 139.5 404 Z " /><path fill="rgb(205,205,205)" stroke="rgb(205,205,205)" stroke-width="1" opacity="1" d="M 146.5 404 L 149 405.5 L 147.5 406 L 146.5 404 Z " /><path fill="rgb(205,205,205)" stroke="rgb(205,205,205)" stroke-width="1" opacity="1" d="M 157.5 404 L 161 404.5 L 153.5 406 L 153.5 405 L 157.5 404 Z " /><path fill="rgb(205,205,205)" stroke="rgb(205,205,205)" stroke-width="1" opacity="1" d="M 324.5 404 L 323.5 406 L 322 405.5 L 324.5 404 Z " /><path fill="rgb(205,205,205)" stroke="rgb(205,205,205)" stroke-width="1" opacity="1" d="M 327.5 405 L 331.5 406 L 334.5 405 L 341 406.5 L 335.5 407 L 332.5 406 L 330.5 407 L 327.5 406 L 327.5 405 Z " /><path fill="rgb(205,205,205)" stroke="rgb(205,205,205)" stroke-width="1" opacity="1" d="M 347.5 407 L 346.5 409 L 344 408.5 L 347.5 407 Z " /><path fill="rgb(255,255,255)" stroke="rgb(255,255,255)" stroke-width="1" opacity="0.996078431372549" d="M 80.5 0 L 95 0.5 L 86.5 1 L 68.5 5 L 45 16 Q 46.3 19 42.5 18 L 23 36.5 L 18 42.5 L 18 45 Q 15.3 43.9 16 46.5 L 5 68.5 L 1 86.5 L 0.5 95 L 0 80.5 L 6 60.5 L 20.5 36 L 23 34.5 Q 21.9 31.2 24.5 32 L 28.5 27 L 32 24.5 Q 31.2 21.9 34.5 23 L 37.5 19 L 53.5 9 L 56.5 9 L 60.5 6 L 80.5 0 Z " /><path fill="rgb(255,255,255)" stroke="rgb(255,255,255)" stroke-width="1" opacity="0.996078431372549" d="M 417.5 0 L 431.5 0 L 451.5 6 L 476 20.5 L 477.5 23 Q 480.8 21.9 480 24.5 L 485 28.5 L 487.5 32 Q 490.1 31.2 489 34.5 L 493 37.5 L 506 60.5 L 512 80.5 L 512 94.5 L 511 94.5 L 511 86.5 L 507 68.5 L 496 45 Q 493 46.3 494 42.5 L 475.5 23 L 469.5 18 L 467 18 Q 468.1 15.3 465.5 16 L 443.5 5 L 425.5 1 L 417.5 1 L 417.5 0 Z " /><path fill="rgb(255,255,255)" stroke="rgb(255,255,255)" stroke-width="1" opacity="0.996078431372549" d="M 0.5 417 L 1 425.5 L 5 443.5 L 16 467 Q 19 465.8 18 469.5 L 36.5 489 L 42.5 494 L 45 494 Q 43.9 496.7 46.5 496 L 68.5 507 L 86.5 511 L 95 511.5 L 80.5 512 L 60.5 506 L 36 491.5 L 34.5 489 Q 31.2 490.1 32 487.5 L 27 483.5 L 24.5 480 Q 21.9 480.8 23 477.5 L 19 474.5 L 9 458.5 L 9 455.5 L 5 448.5 L 0 431.5 L 0.5 417 Z " /><path fill="rgb(255,255,255)" stroke="rgb(255,255,255)" stroke-width="1" opacity="0.996078431372549" d="M 511.5 417 L 512 431.5 L 506 451.5 L 491.5 476 L 489 477.5 Q 490.1 480.8 487.5 480 L 483.5 485 L 480 487.5 Q 480.8 490.1 477.5 489 L 474.5 493 L 451.5 506 L 431.5 512 L 417.5 512 L 417.5 511 L 425.5 511 L 443.5 507 L 467 496 Q 465.8 493 469.5 494 L 489 475.5 L 494 469.5 L 494 467 Q 496.7 468.1 496 465.5 L 507 443.5 L 511 425.5 L 511.5 417 Z " /><path fill="rgb(255,255,255)" stroke="rgb(255,255,255)" stroke-width="1" opacity="1" d="M 95.5 0 L 416.5 0 L 443.5 5 L 467 16 Q 465.8 19 469.5 18 L 490 37.5 L 494 42.5 L 494 45 Q 496.7 43.9 496 46.5 L 507 68.5 L 512 95.5 L 512 416.5 L 507 443.5 L 496 467 Q 493 465.8 494 469.5 L 474.5 490 L 469.5 494 L 467 494 Q 468.1 496.7 465.5 496 L 443.5 507 L 416.5 512 L 95.5 512 L 68.5 507 L 45 496 Q 46.3 493 42.5 494 L 22 474.5 L 18 469.5 L 18 467 Q 15.3 468.1 16 465.5 L 5 443.5 L 0 416.5 L 0 95.5 L 5 68.5 L 16 45 Q 19 46.3 18 42.5 L 37.5 22 L 42.5 18 L 45 18 Q 43.9 15.3 46.5 16 L 68.5 5 L 95.5 0 Z M 181 80 L 173 84 Q 167 89 166 99 L 164 103 L 165 114 L 166 115 L 164 120 Q 164 127 169 130 L 167 134 L 167 137 L 170 141 L 169 145 L 166 144 L 162 146 L 157 143 L 154 145 L 146 145 L 145 146 L 142 144 Q 140 146 136 145 L 133 148 L 130 148 L 126 150 Q 121 151 120 149 L 112 153 L 103 160 L 98 168 L 98 170 L 98 171 L 100 171 Q 99 174 102 173 L 103 173 L 102 175 L 103 177 L 102 182 L 109 185 L 124 188 L 132 186 L 132 188 L 125 194 L 126 198 L 123 202 Q 122 206 124 208 L 124 211 L 120 218 Q 119 225 123 228 Q 122 237 125 243 Q 124 245 127 244 L 128 247 L 127 253 L 131 254 L 138 267 Q 137 269 140 268 L 141 272 L 145 273 L 148 277 L 150 276 L 149 278 L 153 280 Q 155 279 154 282 Q 155 284 160 283 L 162 286 Q 161 288 165 287 Q 166 285 168 288 L 171 287 L 177 289 L 180 288 L 184 290 Q 188 291 187 288 L 202 286 L 203 284 L 210 281 L 211 279 L 216 276 L 217 273 L 221 273 L 226 269 L 228 269 Q 231 267 229 262 L 238 259 L 239 255 L 242 253 Q 241 248 244 246 Q 243 243 246 244 Q 250 242 248 235 L 251 234 L 250 231 L 252 227 L 250 224 L 251 222 L 250 219 Q 251 215 248 216 L 249 214 L 248 207 L 240 192 L 235 188 L 247 184 Q 248 180 250 183 L 255 180 L 258 176 L 257 172 L 254 171 L 257 162 L 245 152 L 243 153 L 239 150 L 237 150 Q 232 151 232 148 L 226 150 Q 223 151 224 148 L 218 148 L 218 150 L 214 147 L 205 147 L 206 144 L 206 136 L 205 135 L 205 134 L 202 128 L 202 126 Q 198 121 198 113 L 196 111 L 196 108 L 196 106 L 192 104 L 194 101 L 193 96 L 193 94 Q 194 91 191 92 L 190 86 L 184 80 L 181 80 Z M 286 125 Q 281 128 273 127 L 272 132 L 267 135 L 267 137 Q 263 140 264 148 L 269 149 Q 272 151 271 157 L 281 162 L 295 163 L 303 168 L 306 166 L 307 165 L 310 168 L 312 167 Q 319 166 323 168 L 325 168 L 327 167 Q 328 170 335 168 L 337 168 L 345 171 L 348 169 L 356 172 L 362 171 L 363 174 L 360 174 L 357 188 L 358 190 L 357 194 L 354 197 L 355 198 L 354 206 L 354 208 L 354 218 L 352 218 L 350 230 L 350 232 L 349 247 L 352 248 L 358 256 L 365 255 L 366 259 L 371 258 L 373 253 L 377 253 L 384 246 L 383 242 L 385 237 L 385 235 L 384 230 L 387 224 Q 388 219 386 218 Q 389 215 388 209 L 390 207 L 388 200 L 392 198 L 390 195 L 394 188 L 393 186 L 394 184 L 393 182 Q 392 173 396 169 L 395 165 L 398 158 L 392 154 Q 391 151 394 150 L 387 138 L 384 139 Q 376 141 377 137 L 372 136 Q 370 139 369 135 L 366 137 L 360 136 Q 358 139 357 135 L 354 136 L 343 134 Q 341 132 340 135 L 337 133 L 335 134 Q 327 136 326 132 L 324 133 L 320 132 L 318 133 Q 312 133 311 130 L 308 132 L 301 130 Q 299 126 298 129 L 292 127 L 290 127 L 286 125 Z M 334 275 L 332 277 L 324 279 Q 322 276 320 281 L 320 282 L 313 282 L 311 282 Q 307 281 308 284 Q 302 283 299 285 L 297 289 Q 294 288 295 291 L 288 292 L 287 297 L 283 298 L 279 305 Q 280 308 277 307 L 271 315 L 272 317 Q 272 323 268 326 L 269 331 Q 272 332 268 334 L 269 336 L 267 339 Q 270 341 269 347 L 269 349 L 269 357 Q 273 358 271 364 L 274 366 Q 273 370 276 369 L 277 373 L 281 377 L 280 380 Q 284 381 283 385 L 287 386 Q 289 385 288 389 L 293 392 Q 292 394 297 393 L 298 396 L 303 399 Q 307 398 306 401 L 315 402 L 317 406 L 320 405 L 323 406 L 325 405 L 331 407 L 333 406 L 342 407 L 345 409 L 349 407 Q 354 409 356 406 Q 360 407 359 404 L 370 401 L 374 401 L 375 399 L 377 397 L 383 396 L 386 393 Q 385 389 388 390 L 389 387 L 396 382 Q 399 383 397 379 L 399 379 Q 403 377 400 376 L 401 374 L 406 370 L 407 369 L 407 363 L 410 354 L 409 349 L 410 347 Q 411 342 408 341 L 408 339 L 405 333 L 405 331 L 401 319 L 398 317 L 397 314 L 395 312 L 391 302 L 385 301 L 384 298 L 375 290 L 372 291 L 371 288 Q 370 285 366 286 L 360 281 L 357 282 L 355 282 L 350 278 L 345 279 L 343 277 Q 336 278 334 275 Z M 120 291 L 117 294 Q 118 296 115 295 L 114 298 L 115 301 Q 116 305 113 306 L 115 314 L 114 316 L 116 325 Q 119 326 115 328 L 119 335 Q 117 341 120 343 L 118 351 Q 117 354 120 353 Q 122 354 120 356 L 120 366 L 121 367 L 120 372 L 122 382 L 119 384 L 120 390 L 124 399 L 128 401 Q 127 404 131 403 L 133 403 L 136 406 L 145 405 Q 146 402 148 406 L 150 405 L 154 406 L 158 405 L 163 406 L 173 400 L 183 402 L 185 398 L 187 398 L 194 397 L 196 397 L 199 395 L 208 395 L 208 392 L 216 392 L 216 390 L 221 391 Q 226 393 225 390 Q 227 385 229 388 L 233 387 L 235 387 L 240 385 L 248 385 L 249 386 Q 253 380 262 379 L 266 374 L 263 368 L 266 363 L 263 358 Q 260 359 261 355 L 253 348 L 251 350 Q 246 349 245 351 L 243 350 Q 239 349 240 352 L 234 352 Q 232 355 227 354 L 225 354 L 221 356 Q 216 357 215 355 Q 210 354 210 357 Q 204 355 205 359 Q 203 362 197 360 L 195 363 L 194 362 L 192 363 L 188 362 L 176 366 L 174 365 L 170 368 L 162 367 L 157 371 Q 156 366 158 365 L 156 362 L 156 355 L 155 354 L 155 351 Q 156 345 153 343 Q 152 338 154 337 L 152 332 L 153 329 L 149 325 L 150 324 L 150 320 L 146 314 L 146 310 L 136 294 L 133 291 L 123 291 L 122 292 L 120 291 Z " /><path fill="rgb(255,255,255)" stroke="rgb(255,255,255)" stroke-width="1" opacity="1" d="M 170.5 197 Q 177.4 200.6 189.5 199 L 191.5 198 L 203.5 204 L 206 203 L 207.5 207 Q 209.8 206.3 209 208.5 L 215 217.5 L 215 221.5 L 217 227 Q 214.3 225.9 215 228.5 L 211.5 233 L 209 234.5 L 208 238.5 L 208.5 240 L 206.5 240 L 204 241.5 L 201.5 245 L 192 249.5 Q 192.8 252.1 189.5 251 L 183.5 254 L 178.5 252 L 174.5 254 L 167 247.5 Q 167.7 244.9 165 246 L 165 243.5 L 158 234.5 L 158 225.5 L 156 223.5 L 159 212.5 L 158 208.5 L 159 205 L 166 201.5 Q 164.8 197.8 168.5 199 L 170.5 197 Z " /><path fill="rgb(255,255,255)" stroke="rgb(255,255,255)" stroke-width="1" opacity="1" d="M 324.5 308 Q 327.3 311.7 334.5 311 L 336.5 310 L 344.5 313 L 347 312 L 348.5 315 Q 351.8 313.9 351 316.5 L 363 325.5 Q 366.9 327.6 366 333 L 372 336.5 Q 372 343.5 376 346.5 L 374 347 L 374 353.5 Q 371 354.8 372 359 Q 368.2 357.5 369 360.5 L 368 364 L 365.5 364 L 361 367.5 Q 362.1 370.8 359.5 370 L 357.5 370 Q 352.9 369.4 351.5 372 L 347.5 371 L 342.5 373 L 340.5 372 L 338.5 373 L 336.5 372 Q 335 375.5 333.5 373 L 324.5 372 L 323 370.5 Q 323.8 367.9 320.5 369 L 318.5 370 L 314.5 364 L 312.5 365 Q 309.8 363.6 311 359 L 307 357.5 L 304 349 Q 301.3 350.1 302 347.5 Q 304.5 346 303 340.5 L 303 338.5 L 302 329 Q 305 330.3 304 326.5 L 310.5 317 L 312.5 318 L 316 316 Q 314.9 313.3 317.5 314 L 324.5 308 Z " /><path fill="rgb(2,2,2)" stroke="rgb(2,2,2)" stroke-width="1" opacity="0.8352941176470589" d="M 0 0 L 80 0.5 L 60.5 6 L 56.5 9 L 53.5 9 L 36 20.5 L 34.5 23 Q 31.2 21.9 32 24.5 L 27 28.5 L 24.5 32 Q 21.9 31.2 23 34.5 L 19 37.5 L 6 60.5 L 0.5 80 L 0 0 Z " /><path fill="rgb(2,2,2)" stroke="rgb(2,2,2)" stroke-width="1" opacity="0.8352941176470589" d="M 432.5 0 L 512 0 L 512 79.5 L 511 79.5 L 503 53.5 L 491.5 36 L 489 34.5 Q 490.1 31.2 487.5 32 L 483.5 27 L 480 24.5 Q 480.8 21.9 477.5 23 L 474.5 19 L 451.5 6 L 432.5 1 L 432.5 0 Z " /><path fill="rgb(2,2,2)" stroke="rgb(2,2,2)" stroke-width="1" opacity="0.8352941176470589" d="M 178.5 81 L 182.5 81 L 189 85.5 Q 189.3 91.7 193 94.5 L 192 96.5 L 193 100.5 L 192 105 L 195 106.5 L 196 113 L 198 113.5 L 198 115.5 L 198 118.5 L 201 124.5 L 200 127.5 L 202 132 Q 205.3 130.7 204 135.5 L 206 142.5 L 204 146.5 L 205.5 148 L 213.5 148 L 217.5 150 L 223 148 Q 221.9 151.5 229.5 150 L 231.5 149 L 235.5 151 L 237.5 150 Q 239.8 154.1 246 153 Q 244.9 155.7 247.5 155 L 256 161 L 255 167.5 L 253 170.5 L 256 171 L 257 175.5 L 253.5 180 L 247 181 Q 248.1 183.7 245.5 183 L 239.5 186 L 237.5 186 Q 233.8 184.8 235 188.5 L 240 192.5 L 247 206.5 L 248 213.5 L 247 215.5 L 250 217.5 L 250 219.5 L 251 226.5 L 249 230.5 L 250 234 L 247 235.5 Q 248.5 242.5 244.5 244 Q 242.3 243.3 243 245.5 L 241 249.5 L 241 251.5 L 239 254.5 L 238 258 L 227 262.5 L 228 268 Q 222.8 268 220.5 272 L 217 272 L 214.5 276 L 210 277 Q 211.7 281.1 207.5 280 L 203 282.5 L 200.5 286 L 192.5 286 L 191.5 287 L 189.5 287 Q 185.8 286 187 289 L 183.5 289 L 178.5 287 L 175.5 288 L 169.5 286 L 167.5 287 Q 166 283.5 164.5 286 L 157.5 282 Q 155.8 284.8 154 280.5 Q 154.8 278.3 152.5 279 L 150 278 Q 151.1 275.3 148.5 276 L 146 275 Q 147.3 272 143.5 273 L 140.5 268 Q 138.3 268.8 139 266.5 L 135 260.5 L 135 257 L 128 253 L 129 249.5 L 128 244.5 L 125 241.5 L 124 235.5 L 124 233.5 L 123 230.5 L 124 228.5 L 121 224.5 L 121 222.5 L 121 217.5 L 125 210.5 L 125 207.5 Q 121.5 206 124 204.5 Q 123.3 200.8 125.5 200 Q 128.1 200.8 127 197.5 L 125 194.5 L 133 187.5 L 132 184 Q 129.3 182.9 130 185.5 Q 128.3 188.8 121.5 187 L 103 182 L 104 177.5 L 103 172 L 98 170 Q 99.9 161.3 107.5 157 L 111 156 L 112.5 153 Q 117.7 153.2 119.5 150 L 128.5 150 L 135.5 146 L 142.5 145 Q 143.8 147.2 148.5 146 L 150.5 146 Q 155.1 146.6 156.5 144 Q 158.2 147.5 164 146 L 164.5 144 L 170 145 L 171 141.5 L 167 135.5 Q 170.5 135 170 130.5 Q 165.3 126.7 165 118.5 L 166 117.5 L 166 107.5 L 164 104.5 L 167 98.5 L 167 96.5 L 167 93.5 Q 170 94.5 169 89.5 L 173.5 84 L 178.5 81 Z M 171 196 L 167 199 Q 163 198 165 202 L 159 204 Q 160 207 157 209 L 158 212 L 155 223 Q 154 226 157 225 L 158 234 L 158 236 Q 157 238 160 237 L 164 244 L 164 247 Q 168 245 167 249 L 174 254 L 179 253 L 185 255 L 190 252 Q 195 254 193 249 L 199 247 Q 201 248 200 245 L 203 245 L 204 243 Q 205 239 210 240 L 209 239 L 210 237 Q 209 233 212 234 L 217 227 L 216 219 Q 212 216 212 210 L 207 203 L 203 203 L 194 198 L 190 198 L 188 198 Q 183 197 182 199 L 177 198 L 175 198 L 171 196 Z " /><path fill="rgb(2,2,2)" stroke="rgb(2,2,2)" stroke-width="1" opacity="0.8352941176470589" d="M 282.5 126 L 284.5 127 L 286.5 126 L 289.5 128 L 291.5 127 L 297.5 130 L 299.5 130 L 306.5 133 L 310.5 131 Q 312.3 134.2 317.5 134 L 322.5 133 L 324.5 133 Q 327.1 136.4 334.5 135 L 336.5 134 L 339.5 136 L 343.5 134 L 349.5 137 L 353.5 137 L 358 136 L 358.5 138 L 360.5 137 L 364.5 138 L 368.5 136 L 373.5 137 L 377.5 140 L 381.5 140 L 387 139 L 393 149.5 Q 389.5 151 392 152.5 Q 390.8 156.3 394.5 155 L 397 158.5 L 394 164.5 L 395 169.5 L 392 175.5 L 392 181.5 L 393 183.5 L 392 185.5 L 393 187.5 Q 389.4 189.4 390 195.5 L 391 197.5 L 387 200.5 L 390 205.5 L 387 208.5 Q 388.2 215.2 385 217.5 Q 387.5 219 386 224.5 L 384 227.5 L 384 237.5 L 382 241.5 Q 385.5 243 383 244.5 L 376.5 252 L 374.5 251 L 370 258 Q 364.8 260.1 366 255.5 Q 364.8 252.8 363.5 255 L 360.5 256 L 358 255 L 354.5 250 Q 351.5 250.7 353 247 L 350.5 247 L 349 243.5 Q 352.2 240.2 351 232.5 L 350 230.5 L 352 228.5 L 352 220.5 L 355 214.5 Q 353.3 208.2 356 206.5 L 354 202.5 L 356 198.5 L 355 196.5 L 358 193.5 L 358 184.5 L 361.5 174 L 363 174.5 Q 365.3 167.3 357.5 170 L 354.5 171 L 351.5 169 L 349 170 Q 350.3 167 346.5 168 L 343.5 170 L 337.5 167 L 333.5 168 L 331.5 167 L 328 168 Q 329.1 165.3 326.5 166 Q 325 168.5 319.5 167 Q 317.8 164.3 311.5 166 L 309.5 167 L 308 164 L 301.5 167 L 294.5 162 L 284.5 161 L 282.5 162 L 275.5 157 L 272 157 L 269.5 148 L 267.5 149 L 264 145.5 L 265 144.5 L 265 141.5 L 268.5 135 Q 270.8 135.8 270 133.5 L 274 128 Q 280.6 129.8 282.5 126 Z " /><path fill="rgb(2,2,2)" stroke="rgb(2,2,2)" stroke-width="1" opacity="0.8352941176470589" d="M 333 276 L 343.5 279 L 349.5 279 L 355.5 283 L 360.5 282 L 364 287 L 370 287 L 370 289.5 Q 370.8 291.8 374.5 291 L 384 298.5 L 384 302 L 389.5 302 L 390 303.5 L 393.5 312 Q 395.8 311.3 395 313.5 L 400 317 L 400 320.5 L 404 330.5 L 404 332.5 L 407 336.5 Q 406.2 341.8 409 343.5 L 409 353.5 L 406 365.5 L 407 367.5 L 401 372.5 L 398.5 378 L 396 379.5 L 393.5 383 Q 391.3 382.3 392 384.5 L 388 387.5 Q 388.8 389.8 386.5 389 L 382.5 395 L 376.5 396 L 374 398.5 Q 374.9 401.9 369.5 400 L 362.5 402 L 360.5 404 L 358 403 Q 359.3 406 355.5 405 L 352.5 406 L 351 405.5 Q 351.9 408.5 347.5 407 L 343.5 408 L 340.5 406 L 332.5 405 L 330.5 406 L 324.5 404 L 323.5 405 L 316 405 L 314.5 401 L 308.5 401 L 298 394.5 L 296.5 392 L 289 389 L 286.5 385 Q 282.8 386.3 284 382.5 L 281 381 L 281 375.5 L 273.5 364 L 271 362.5 L 272 358.5 L 270 356.5 L 270 341 Q 266.7 342.3 268 337.5 Q 271.5 336 269 334.5 L 271 331.5 Q 268.4 330.1 269 325.5 L 273 317.5 L 272 314.5 L 277.5 307 L 280 305.5 L 284 298 Q 287.8 299.5 287 296.5 L 289 293 Q 297.1 293 300 286.5 Q 299.5 283.5 306.5 285 L 308.5 283 L 320 283 L 322.5 279 L 325.5 280 L 330.5 277 L 333 278 L 333 276 Z M 324 308 L 321 310 Q 318 309 319 312 L 313 317 L 309 317 Q 307 325 301 330 L 302 334 L 301 336 L 302 338 L 301 340 L 303 343 L 301 349 L 304 350 Q 304 357 309 360 L 310 360 L 310 365 L 315 365 Q 314 370 319 371 L 321 370 L 325 373 Q 329 372 331 374 Q 335 375 337 373 L 339 374 L 341 373 L 343 374 L 346 372 Q 350 371 352 373 Q 354 370 361 371 L 362 367 L 368 365 L 369 362 L 373 360 Q 372 355 375 354 L 375 349 L 377 347 L 374 344 Q 374 338 371 336 Q 372 333 370 334 L 366 331 L 364 326 L 356 318 L 353 318 L 351 314 Q 347 315 348 312 L 346 311 L 345 313 L 340 310 Q 329 311 324 308 Z " /><path fill="rgb(2,2,2)" stroke="rgb(2,2,2)" stroke-width="1" opacity="0.8352941176470589" d="M 124.5 291 L 130.5 292 L 132.5 292 L 136 294.5 L 145 309.5 L 147 317.5 L 150 320.5 L 148 324.5 L 152 329.5 L 151 331.5 Q 154 332.5 153 337.5 L 152 341.5 L 155 346.5 L 154 348.5 L 154 350.5 L 153 354.5 L 155 355 L 155 360.5 L 157 365.5 Q 154.7 366.8 156 371.5 L 157.5 371 L 161 370 Q 159.7 366.3 165.5 368 L 169.5 369 L 173.5 366 L 175.5 367 L 187.5 363 L 190.5 364 L 196 363 L 196.5 361 L 203.5 361 L 206.5 357 L 217.5 356 L 220.5 357 L 224.5 355 L 226.5 355 L 228.5 354 L 230.5 355 L 236.5 352 L 238.5 353 Q 239.6 350.3 243 351 L 243.5 353 L 245.5 351 Q 251.5 352 253.5 349 L 260 354.5 Q 259.3 358.3 261.5 359 Q 263.8 358.3 263 360.5 Q 266.5 362 264 363.5 L 262 367.5 L 265 373.5 L 262.5 377 L 250 383 Q 251.3 386 247.5 385 Q 246 382.5 240.5 384 L 237.5 386 L 228.5 387 L 226 386 L 224 391 L 216.5 389 Q 214.6 392.8 208 391 L 206.5 394 L 198.5 394 L 196.5 396 L 186.5 397 L 185 396.5 L 183 401 L 173.5 399 L 164 403 Q 165.3 406 161.5 405 L 157.5 404 L 152.5 405 L 150.5 404 L 147.5 405 L 144.5 404 L 142.5 404 L 138.5 405 L 136.5 405 L 128 402 Q 129.5 398.3 126.5 399 Q 120.5 393.3 120 383 L 123 381.5 L 121 370.5 L 122 366.5 L 121 365.5 L 121 353 Q 118 354.3 119 350.5 L 121 345.5 L 121 343.5 Q 118.7 340.3 120 333.5 L 116 327.5 L 117 323.5 L 115 315.5 L 115 313.5 L 114 304 Q 117 305.3 116 301.5 L 115 297.5 L 119.5 292 L 121.5 293 L 124.5 291 Z " /><path fill="rgb(2,2,2)" stroke="rgb(2,2,2)" stroke-width="1" opacity="0.8352941176470589" d="M 0.5 432 L 6 451.5 L 9 455.5 L 9 458.5 L 20.5 476 L 23 477.5 Q 21.9 480.8 24.5 480 L 28.5 485 L 32 487.5 Q 31.2 490.1 34.5 489 L 37.5 493 L 60.5 506 L 80 511.5 L 0 512 L 0.5 432 Z " /><path fill="rgb(2,2,2)" stroke="rgb(2,2,2)" stroke-width="1" opacity="0.8352941176470589" d="M 511.5 432 L 512 512 L 432 511.5 L 451.5 506 L 455.5 503 L 458.5 503 L 476 491.5 L 477.5 489 Q 480.8 490.1 480 487.5 L 485 483.5 L 487.5 480 Q 490.1 480.8 489 477.5 L 493 474.5 L 506 451.5 L 511.5 432 Z " /></svg>